HIERARCHY
ROOT Hips
{
  OFFSET 0 89.5177 0.535
  CHANNELS 6 Xposition Yposition Zposition Zrotation Xrotation Yrotation
  JOINT Spine
  {
    OFFSET 12.0259 -0.162855 1.69034e-005
    CHANNELS 3 Zrotation Xrotation Yrotation
    JOINT Spine1
    {
      OFFSET 15.3169 -0.0121922 0
      CHANNELS 3 Zrotation Xrotation Yrotation
      JOINT Spine2
      {
        OFFSET 15.3176 -0.0121908 0
        CHANNELS 3 Zrotation Xrotation Yrotation
        JOINT Neck
        {
          OFFSET 19.9142 1.56338 0
          CHANNELS 3 Zrotation Xrotation Yrotation
          JOINT Head
          {
            OFFSET 6.92651 0 0
            CHANNELS 3 Zrotation Xrotation Yrotation
            End Site
            {
              OFFSET 20.7666 0 0
            }
          }
          JOINT LeftShoulder
          {
            OFFSET -6.20654 0.708824 7.28219
            CHANNELS 3 Zrotation Xrotation Yrotation
            JOINT LeftArm
            {
              OFFSET 14.108 0 -1.52588e-005
              CHANNELS 3 Zrotation Xrotation Yrotation
              JOINT LeftForeArm
              {
                OFFSET 28.5802 0 0
                CHANNELS 3 Zrotation Xrotation Yrotation
                JOINT LeftHand
                {
                  OFFSET 27.092 0 0
                  CHANNELS 3 Zrotation Xrotation Yrotation
                  End Site
                  {
                    OFFSET 9.55928 -0.186424 0.145352
                  }
                }
              }
            }
          }
          JOINT RightShoulder
          {
            OFFSET -6.20654 0.708866 -7.28218
            CHANNELS 3 Zrotation Xrotation Yrotation
            JOINT RightArm
            {
              OFFSET 14.108 0 1.52588e-005
              CHANNELS 3 Zrotation Xrotation Yrotation
              JOINT RightForeArm
              {
                OFFSET 28.5802 0 0
                CHANNELS 3 Zrotation Xrotation Yrotation
                JOINT RightHand
                {
                  OFFSET 27.092 0 0
                  CHANNELS 3 Zrotation Xrotation Yrotation
                  End Site
                  {
                    OFFSET 9.55929 -0.186417 -0.145354
                  }
                }
              }
            }
          }
        }
      }
    }
  }
  JOINT LeftUpLeg
  {
    OFFSET 0.005 -0.535 8.837
    CHANNELS 3 Zrotation Xrotation Yrotation
    JOINT LeftLeg
    {
      OFFSET 39.9035 0 0
      CHANNELS 3 Zrotation Xrotation Yrotation
      JOINT LeftFoot
      {
        OFFSET 39.6689 0 0
        CHANNELS 3 Zrotation Xrotation Yrotation
        JOINT LeftToe
        {
          OFFSET 10.1624 13.6296 0
          CHANNELS 3 Zrotation Xrotation Yrotation
          End Site
          {
            OFFSET 8.38147 0 0
          }
        }
      }
    }
  }
  JOINT RightUpLeg
  {
    OFFSET 0.005 -0.535 -8.837
    CHANNELS 3 Zrotation Xrotation Yrotation
    JOINT RightLeg
    {
      OFFSET 39.9035 0 0
      CHANNELS 3 Zrotation Xrotation Yrotation
      JOINT RightFoot
      {
        OFFSET 39.6689 0 0
        CHANNELS 3 Zrotation Xrotation Yrotation
        JOINT RightToe
        {
          OFFSET 10.1624 13.6296 0
          CHANNELS 3 Zrotation Xrotation Yrotation
          End Site
          {
            OFFSET 8.38147 0 0
          }
        }
      }
    }
  }
}
MOTION
Frames:	9
Frame Time:	0.0333333
249.031 89.6812 -71.036 33.564 -79.6361 -50.5119 3.00586 -0.777048 -1.04382 5.99796 -1.60716 -2.04561 5.99796 -1.60716 -2.04562 -8.30669e-012 -9.0191e-006 -5.27751e-005 12.3525 1.61889 -1.4549 -178.076 -10.3334 -79.3948 10.3647 -40.6397 28.6778 -18.4334 -6.36111e-015 9.54166e-015 -67.3443 -31.1491 -57.2539 -179.743 8.22906 88.2018 35.1689 59.3699 -53.2479 -10.196 -1.27222e-014 -3.18055e-015 -53.0892 27.7242 45.8227 4.07766 -1.8875 179.326 -25.8674 2.38542e-015 -7.95139e-016 12.3887 7.96535 -12.3517 90 -9.93923e-016 -3.97569e-016 3.79002 -4.12039 174.568 -16.8889 3.97569e-016 1.98785e-016 13.1989 -3.7873 1.5747 90 -2.48481e-016 7.95139e-016 
248.184 89.5702 -70.6329 32.2053 -80.1172 -52.1996 2.90755 -0.813218 -1.01883 5.80112 -1.67647 -1.99528 5.80112 -1.67647 -1.99529 -8.30828e-012 -9.0191e-006 -5.27751e-005 12.5016 -0.0565201 0.133935 -178.105 -10.2987 -79.5158 10.8496 -40.808 29.1788 -18.5702 3.18055e-015 -3.18055e-015 -67.3923 -31.2156 -57.3888 -179.735 8.29741 88.1639 34.3331 59.5678 -52.8258 -10.1592 -3.18055e-015 1.59028e-015 -52.9684 27.6449 45.5939 4.94096 -0.659788 179.431 -23.8262 -1.59028e-015 -1.19271e-015 13.4729 8.49656 -14.3584 90 -7.70291e-016 1.98785e-016 2.93342 -3.63946 174.228 -17.4791 3.97569e-016 9.93923e-017 13.0445 -3.82332 1.97656 90 -1.67725e-016 -7.95139e-016 
247.235 89.4548 -70.1011 30.9793 -80.5729 -53.4885 2.8498 -0.865842 -1.03773 5.68448 -1.78159 -2.03136 5.68448 -1.78159 -2.03137 -8.30828e-012 -9.0191e-006 -5.27751e-005 12.2315 -1.38429 1.65204 -178.129 -10.2313 -79.5797 11.0179 -40.6363 29.4435 -18.5859 0 -7.95139e-016 -67.0768 -31.3557 -57.0596 -179.721 8.30405 88.0674 33.8438 59.6878 -52.4247 -10.0213 3.18055e-015 3.18055e-015 -52.709 27.7319 45.3362 5.81551 0.548848 178.892 -21.5313 0 1.59028e-015 13.98 8.46777 -15.0223 90 -1.70209e-015 9.93923e-017 1.73808 -3.2844 173.533 -18.4642 -1.98785e-016 3.47873e-016 12.9677 -3.93744 2.53536 90 -4.96962e-017 -0 
246.25 89.3305 -69.482 29.6048 -80.803 -54.8318 2.88928 -0.907393 -1.07344 5.76221 -1.86711 -2.10005 5.76221 -1.86711 -2.10006 -8.30907e-012 -9.0191e-006 -5.27751e-005 11.5417 -2.63121 3.23959 -178.171 -9.98084 -79.563 10.8288 -40.3847 29.3987 -18.5263 9.54166e-015 5.56597e-015 -67.0362 -31.3738 -57.0361 -179.701 8.29806 87.9324 34.2256 59.7166 -52.4744 -9.96332 3.18055e-015 3.18055e-015 -52.5481 27.9048 45.3392 6.8675 0.752341 177.983 -19.0378 -2.38542e-015 -7.95139e-016 14.0302 7.97349 -14.4043 90 4.96962e-017 1.98785e-016 0.781013 -2.83032 172.746 -19.3048 1.98785e-016 -4.96962e-017 12.6893 -3.95057 3.06433 90 -3.41661e-016 -7.95139e-016 
245.291 89.2322 -68.8342 27.8041 -80.9484 -56.7335 2.98105 -0.925302 -1.08826 5.94523 -1.90531 -2.12723 5.94523 -1.90531 -2.12723 -8.30828e-012 -9.0191e-006 -5.27751e-005 10.6382 -3.89387 4.79258 -178.229 -9.68814 -79.5895 10.5829 -40.1401 29.3732 -18.5671 0 -2.38542e-015 -67.1465 -31.2881 -57.13 -179.683 8.23824 87.7925 35.2531 59.64 -52.9199 -9.82302 3.18055e-015 4.77083e-015 -52.5825 27.9977 45.4797 7.88293 1.0491 177.269 -16.726 -2.38542e-015 -0 13.9711 7.58223 -14.085 90 8.07563e-016 2.98177e-016 0.107731 -2.4597 172.114 -19.74 1.98785e-016 -1.98785e-016 12.2767 -4.05141 3.67403 90 -2.76435e-016 7.95139e-016 
244.388 89.1652 -68.1273 26.5353 -81.3436 -58.2054 3.0094 -0.944536 -1.0775 6.00181 -1.9437 -2.10424 6.00181 -1.9437 -2.10425 -8.31066e-012 -9.0191e-006 -5.27751e-005 9.90994 -4.95512 6.22945 -178.269 -9.42353 -79.5401 10.3466 -39.6876 29.21 -18.7452 6.36111e-015 2.38542e-015 -67.0945 -31.3086 -57.0303 -179.662 8.13379 87.6137 35.9902 59.5676 -53.1433 -9.42304 -3.18055e-015 1.59028e-015 -52.498 28.2236 45.5669 8.35219 1.65794 176.727 -14.829 1.59028e-015 -1.98785e-016 13.8685 7.44378 -14.2634 90 1.25793e-015 2.98177e-016 -0.794751 -2.28661 171.618 -19.9502 3.97569e-016 2.98177e-016 11.9921 -4.32785 4.2248 90 -2.01891e-017 1.59028e-015 
243.562 89.1214 -67.3768 26.2888 -81.9702 -58.622 2.96092 -0.999404 -1.05299 5.90439 -2.05123 -2.05329 5.90439 -2.05123 -2.0533 -8.30748e-012 -9.0191e-006 -5.27751e-005 9.52102 -5.79503 7.24146 -178.253 -9.37133 -79.3916 10.0143 -39.3967 28.9852 -18.7868 -3.18055e-015 3.97569e-015 -67.0827 -31.4673 -57.135 -179.656 8.09037 87.5588 36.6494 59.5567 -53.5748 -9.0314 0 -2.38542e-015 -52.4152 28.4724 45.7496 8.25677 2.14633 176.247 -13.3257 0 -1.98785e-016 13.6449 7.41278 -14.5507 90 2.00804e-015 -0 -2.05274 -2.30973 171.103 -20.2243 2.98177e-016 4.96962e-017 11.9878 -4.81954 4.84381 90 2.98177e-016 -0 
242.828 89.1102 -66.6733 25.528 -82.456 -59.3122 2.93673 -1.05656 -1.08179 5.85456 -2.16649 -2.10843 5.85456 -2.16649 -2.10844 -8.30907e-012 -9.0191e-006 -5.27751e-005 9.4515 -6.42609 8.01397 -178.246 -9.32602 -79.3011 9.81805 -39.2273 28.7938 -18.7958 9.54166e-015 -2.38542e-015 -66.9951 -31.4554 -56.9829 -179.624 8.13443 87.3461 37.0629 59.5905 -53.8474 -8.88093 -3.18055e-015 -1.19271e-015 -52.1374 28.6524 45.5947 8.0668 2.75106 175.708 -12.3172 7.95139e-016 1.98785e-016 13.3806 7.66789 -15.3948 90 7.20594e-016 -1.98785e-016 -3.34861 -2.48952 170.39 -21.1558 -1.98785e-016 -7.88927e-016 13.4223 -5.46638 5.3665 90 4.72114e-016 2.38542e-015 
242.221 89.091 -66.0708 23.0798 -82.645 -61.5248 2.967 -1.08849 -1.16933 5.91285 -2.23535 -2.28124 5.91285 -2.23535 -2.28125 -8.30589e-012 -9.0191e-006 -5.27751e-005 9.69859 -6.78973 8.72309 -178.275 -9.21736 -79.3535 9.6663 -39.0933 28.5721 -18.8417 -6.36111e-015 -0 -66.9755 -31.4294 -56.9313 -179.599 8.10199 87.157 37.6652 59.4034 -54.2177 -8.90865 -3.18055e-015 -1.59028e-015 -52.1462 28.6195 45.6431 7.1446 3.27628 175.151 -13.4953 1.59028e-015 3.97569e-016 13.5988 7.9466 -15.9124 90 4.12866e-015 -1.98785e-016 -4.16451 -2.88051 169.621 -22.6426 5.96354e-016 -2.48481e-016 15.9873 -5.90114 5.86001 90 -3.47873e-016 -0 
